<svg xmlns="http://www.w3.org/2000/svg" viewBox="0 0 196 29"><path d="M0 20.46h17.45l2.69 4.35H0v-4.35zm0-6.81v4.32h15.92l-2.66-4.32zm17.08-2.48H0V6.83h18.23v.52a6.04 6.04 0 01-1.15 3.82M8.76 0H0v4.35h17.68C16.4 1.38 13.04 0 8.76 0" class="cls-1"/><path d="M101.2 11.15h-4.1l-2.27 9.2-2.49-9.2h-4.22l3.96 11.07a6.32 6.32 0 01.55 1.95 1.98 1.98 0 01-.58 1.4 3.17 3.17 0 01-1.64.34l-1.02-.02v3.06c.34 0 .68.05 1.02.05 1.7 0 3.84.1 5-1.35a11.34 11.34 0 001.3-2.95l4.51-13.55zM99.58 5.4h-4.65l-1.9 3.93h3.02l3.53-3.93zm34.3 19.42v-2.9l6.77-7.54h-6v-3.22h10.83v3.14l-6.55 7.3h7v3.22zm22.38 0v-7.65a3.24 3.24 0 00-.66-2.56 2 2 0 00-1.37-.47 2.24 2.24 0 00-1.5.53c-.93.76-.87 2.05-.87 3.13v7.02H148V6.2h3.85v6.35c.61-1.08 2.57-1.71 3.73-1.71a4.94 4.94 0 012.72.77c1.58 1.13 1.85 2.66 1.85 4.48v8.73zm10.46 0h-3.88V6.2h3.88v18.62zm29.29-4.2c0-3.42-3.38-4.03-6.02-4.58-.71-.16-2.32-.35-2.32-1.32s1.16-1.1 1.9-1.1a2.64 2.64 0 012.05.86 2.69 2.69 0 01.35 1.11l3.64-.19c-.16-3.34-2.98-4.64-6-4.64-2.77 0-5.7 1.11-5.7 4.33 0 5.46 8.13 3.48 8.13 5.93 0 1.08-1.1 1.27-1.95 1.27-1.74 0-2.67-.5-2.9-2.27l-3.7.13a5.09 5.09 0 00.13 1.27c.69 2.82 3.6 3.8 6.2 3.8 3 0 6.19-1.06 6.19-4.59m-14.45-3.42a10.92 10.92 0 00-.37-3.72c-1-2.38-3.57-2.74-5.84-2.74-3.1 0-5.66 1.31-5.84 4.72h3.6c-.05-1.35 1.32-1.72 2.4-1.72.82 0 2.09.21 2.09 1.27 0 .97-1.43 1.03-2.12 1.13-2.96.42-6.73.77-6.73 4.65 0 2.76 2.1 4.4 4.75 4.4 1.96 0 2.8-.58 4.3-1.64l.04 1.24h3.72v-7.6zm-3.86 3.16a3.67 3.67 0 01-3.2 1.77c-.9 0-1.82-.42-1.82-1.45 0-1.77 2.82-1.8 4.07-2.11a6.8 6.8 0 00.95-.32v2.11zM44.76 18.58l-4.36-.29c-.03 2.11-2 3.43-3.99 3.43a4.55 4.55 0 01-2.88-1c-1.58-1.32-1.9-3.4-1.9-5.33 0-3.08 1.24-6.14 4.78-6.14a3.76 3.76 0 013.49 1.87 4.42 4.42 0 01.4.97l4.2-.28a6.71 6.71 0 00-.32-1.27c-1.1-3.3-4.4-4.8-7.7-4.8-5.85 0-9.36 3.98-9.36 9.68 0 3.9 1.85 7.72 5.63 9.2a10.23 10.23 0 003.67.6c3.04 0 5.86-1.1 7.42-3.82a7.23 7.23 0 00.92-2.82m14.5.53v-.66c0-4.22-2.16-7.7-6.73-7.7-4.2 0-6.92 3.13-6.92 7.22 0 4.2 2.59 7.23 6.92 7.23 3.01 0 5.6-1.43 6.58-4.35l-3.91-.27a2.62 2.62 0 01-2.57 1.45c-1.8 0-2.72-1.24-2.95-2.92zm-4.09-2.96H49.7a2.74 2.74 0 012.93-2.34 2.48 2.48 0 012.54 2.35m17.75 4.45c0-3.43-3.38-4.04-6.02-4.59-.72-.16-2.33-.34-2.33-1.32s1.16-1.1 1.9-1.1a2.64 2.64 0 012.06.87 2.7 2.7 0 01.34 1.1l3.65-.18c-.16-3.35-2.98-4.64-6-4.64-2.77 0-5.7 1.1-5.7 4.32 0 5.46 8.14 3.48 8.14 5.94 0 1.08-1.11 1.26-1.96 1.26-1.74 0-2.67-.5-2.9-2.27l-3.7.14a5.12 5.12 0 00.13 1.26c.69 2.82 3.6 3.8 6.2 3.8 3 0 6.19-1.06 6.19-4.59m15.52 4.19l-5.65-8.49 5.28-5.17h-5.04l-4.23 4.67V6.2h-3.88v18.6h3.88v-4.53L80.07 19l3.43 5.8zm29.69-10.34v-3.53a6.09 6.09 0 00-.69-.05 3.4 3.4 0 00-3.54 2.5v-2.23h-3.8V24.8h4v-4.45c0-.69 0-1.4.02-2.09.05-2.2.37-3.87 3.09-3.87a5.44 5.44 0 01.92.08m14.8 3.45c0-4.08-2.65-7.17-6.85-7.17-4.44 0-7.31 2.88-7.31 7.3 0 4.2 2.66 7.15 6.94 7.15a6.96 6.96 0 007.21-7.28m-3.99-.16c0 2.03-.68 4.27-3.09 4.27-2.35 0-3.09-2.16-3.09-4.13 0-2.03.8-4.04 3.15-4.04 2.3 0 3.03 1.95 3.03 3.9M38.16 4.56h-4.53L31.19 1.5h3.56l1.18 1.78 1.13-1.78h3.62l-2.52 3.07z"/></svg>