<svg height="532pt" viewBox="0 0 532 532" width="532pt" xmlns="http://www.w3.org/2000/svg"><path d="M157.7 148.8c-1.6 1.7-1.7 9.1-1.7 85.4 0 76.5.1 83.7 1.7 84.9 1.3 1.1 10.3 1.5 46.6 1.7 29.5.2 45.5.6 46.3 1.3.9.8 1.4 6.5 1.6 20.9.4 24.9-.1 24 13.7 24 5.3 0 10.1-.4 10.7-.8 2.9-1.9 3.4-5.6 3.4-24 0-14.5.3-19.2 1.3-20 .9-.8 15.7-1.2 46.4-1.4 36.3-.2 45.3-.6 46.6-1.7 1.6-1.2 1.7-8.4 1.7-85.1 0-79.8-.1-83.8-1.8-85.3-1.7-1.6-10.7-1.7-108.4-1.7-101.9 0-106.6.1-108.1 1.8zM349 174c2 2 2 3.3 2 59.3 0 50.2-.2 57.5-1.6 59.5l-1.5 2.2H184.1l-1.5-2.2c-1.4-2-1.6-9.3-1.6-59.5 0-56 0-57.3 2-59.3s3.3-2 83-2 81 0 83 2z"/><path d="M400.2 191.6c-2 1.4-2.2 2.3-2.2 10.8 0 14.1-2.6 13.1 32.2 13.4 28.3.2 29.4.3 31.1 2.3 1.6 2 1.7 6.4 1.7 61 0 57.6 0 58.9-2 60.9s-3.3 2-79.3 2c-73.7 0-77.5.1-79 1.8-2.6 2.8-2.4 19.2.1 21.5 1.7 1.6 9.5 1.7 91.9 1.7 85.9 0 90.1-.1 91.6-1.8 1.6-1.7 1.7-9.2 1.7-87v-85.1l-2.2-1.5c-1.9-1.4-7.7-1.6-42.8-1.6s-40.9.2-42.8 1.6zm-354.5 2.2c-1.6 1.7-1.7 9.1-1.7 85.9 0 80.1.1 84.1 1.8 85.6 1.7 1.6 9.5 1.7 91.9 1.7 85.9 0 90.1-.1 91.6-1.8 2.6-2.8 2.4-19.2-.1-21.5-1.7-1.6-8.6-1.7-79-1.7-75.9 0-77.2 0-79.2-2s-2-3.3-2-60.5 0-58.5 2-60.5c1.9-1.9 3.3-2 30.8-2 34.5 0 32.2.9 32.2-12.7 0-7.4-.3-9.3-1.8-10.6-1.7-1.5-6.1-1.7-43.4-1.7-38.9 0-41.6.1-43.1 1.8z"/></svg>